PathFileType	4	(X/Y/Z)	D:\TRACE\v60_Jaco2_6-2-23\JustArmDRS_Motion1_4-platform.trc
DataRate	CameraRate	NumFrames	NumMarkers	Units	OrigDataRate	OrigDataStartFrame	OrigNumFrames
100.00	100.00	      62	5	mm	100.00	852	      6812
Frame#	Time	Left_Front			Right_Front			Left_Aft			Right_Aft			Post			
		X1	Y1	Z1	X2	Y2	Z2	X3	Y3	Z3	X4	Y4	Z4	X5	Y5	Z5	

852	8.510	-761.24469	-1.88428	-641.45862	808.80865	0.03867	-647.06897	-669.17511	14.50304	493.32980	772.72333	14.49524	503.28937	24.77360	1293.09692	-984.99792	
853	8.520	-761.75012	-1.25240	-641.64728	807.93597	0.43069	-647.00055	-669.81622	14.15854	493.45853	772.34570	14.31899	503.39581	24.37553	1293.64746	-984.29852	
854	8.530	-762.32312	-0.78316	-641.48450	807.42908	0.86634	-646.71533	-670.37158	13.95251	493.61053	771.73578	14.14665	503.43494	23.64127	1294.06433	-983.38324	
855	8.540	-763.20532	-0.40138	-641.28461	807.01978	1.18416	-646.66888	-670.92108	13.66234	493.72095	771.59473	13.89582	503.50507	23.19080	1294.50000	-982.28021	
856	8.550	-763.69055	-0.19293	-641.20764	806.44147	1.56884	-646.72253	-671.50214	13.36491	493.70676	770.65540	13.52922	503.44125	22.44807	1295.16980	-981.23138	
857	8.560	-764.30615	-0.02249	-641.14832	805.78076	1.87011	-646.62201	-672.10809	13.14858	493.73654	770.07593	13.22943	503.53925	21.88844	1295.65942	-979.91516	
858	8.570	-764.88080	0.50829	-641.05225	805.07758	2.29459	-646.45520	-672.83600	12.97261	493.78647	769.36084	13.12030	503.51645	21.58228	1295.98682	-979.13336	
859	8.580	-765.37335	0.78526	-641.09998	804.48846	2.74532	-646.23389	-673.40472	12.71681	494.00381	768.61371	12.73477	503.84702	20.97222	1296.50098	-978.20068	
860	8.590	-766.31482	1.14653	-640.79974	804.03101	2.84880	-646.21497	-674.00586	12.43684	494.04727	768.05414	12.55793	503.80951	20.00911	1297.05896	-977.73584	
861	8.600	-766.96814	1.52839	-640.74103	803.17920	3.21150	-646.15393	-674.63531	12.15244	494.20847	767.41632	12.29041	503.91226	19.37571	1297.68726	-977.02319	
862	8.610	-767.47235	1.83715	-640.67316	802.45770	3.64251	-645.96173	-675.49573	11.92725	494.34048	766.51221	12.01397	504.05655	19.01197	1298.15613	-976.69287	
863	8.620	-768.11243	2.18852	-640.52936	801.66852	3.85583	-645.97681	-676.08844	11.57345	494.39304	765.57068	11.76225	503.98807	18.16817	1298.73413	-976.47723	
864	8.630	-768.98682	2.65253	-640.46558	800.98639	4.16673	-645.93994	-676.95123	11.40006	494.51932	765.20575	11.47860	504.19452	17.15598	1299.39075	-975.44336	
865	8.640	-769.86664	3.22010	-640.47974	800.28918	4.64012	-645.77789	-677.38190	11.25088	494.59875	764.40369	11.33251	504.38281	16.67807	1299.85498	-975.05981	
866	8.650	-770.42383	3.61132	-640.38428	799.48798	5.02695	-645.67029	-678.27051	10.98882	494.72452	763.45148	11.09640	504.47147	15.94538	1300.15222	-974.16943	
867	8.660	-770.97522	3.98727	-640.26019	798.75995	5.44823	-645.79285	-678.85626	10.61509	494.77710	762.91876	10.61711	504.45209	15.27977	1300.89050	-973.51398	
868	8.670	-771.96338	4.27393	-640.20532	798.07721	5.65935	-645.67780	-679.55188	10.43515	494.87167	762.43195	10.45579	504.57355	14.44651	1301.49634	-972.12653	
869	8.680	-772.85211	4.59011	-640.02686	797.25507	5.94652	-645.45032	-680.57605	10.15046	494.98825	761.19080	10.04770	504.80453	13.55349	1302.13269	-971.07874	
870	8.690	-773.22546	4.93232	-639.77917	796.27954	6.39775	-645.51331	-681.29443	9.94025	495.06348	760.75067	9.79650	504.81393	13.00095	1302.64185	-970.31012	
871	8.700	-774.19305	5.14517	-639.80719	795.66241	6.64889	-645.54456	-681.99542	9.78586	495.18942	760.04749	9.49231	504.92450	11.95343	1303.16455	-968.89758	
872	8.710	-774.96283	5.47751	-639.58081	794.85376	7.04130	-645.22333	-682.83557	9.48840	495.32074	759.30377	9.29736	505.04239	10.91669	1303.90723	-968.10626	
873	8.720	-776.17432	5.95098	-639.47247	794.04620	7.47984	-645.13873	-683.57141	9.23732	495.34262	758.28064	9.07521	505.26932	10.60808	1304.51721	-967.36188	
874	8.730	-776.81647	6.32276	-639.60858	793.34186	7.73909	-645.18140	-684.31006	8.97820	495.31296	757.61444	8.77479	505.35721	9.41209	1304.85181	-966.36597	
875	8.740	-777.32623	6.53972	-639.45038	792.39081	8.18743	-645.12323	-685.35248	8.63834	495.50787	756.90930	8.49413	505.31543	8.82649	1305.43396	-965.79187	
876	8.750	-778.27716	7.19210	-639.30060	791.34845	8.65168	-644.86182	-686.12073	8.40708	495.73886	755.64832	8.19847	505.67349	7.98198	1305.90076	-965.15680	
877	8.760	-779.24738	7.81892	-639.34644	790.80249	8.88568	-644.77911	-686.79279	8.06136	495.87448	755.01947	8.02449	505.66400	7.40485	1306.46924	-964.70178	
878	8.770	-780.07813	8.15646	-639.39429	790.01398	9.40849	-644.84302	-687.59149	7.81263	495.85269	754.38397	7.63280	505.51080	6.32516	1307.00122	-964.10944	
879	8.780	-780.68091	8.45666	-639.26691	789.07855	9.87985	-644.50940	-689.07312	8.21489	495.90027	753.31653	7.44117	505.82361	5.62259	1307.68091	-963.40741	
880	8.790	-781.58124	8.79876	-639.00366	788.29211	10.13815	-644.38611	-689.94049	7.89098	495.88626	752.37762	7.02473	506.07840	4.75460	1308.34314	-962.50983	
881	8.800	-782.60852	9.28179	-638.92047	787.32257	10.60491	-644.27386	-690.80743	7.59495	496.02664	751.68988	6.86796	506.04614	3.94640	1308.82104	-961.57141	
882	8.810	-783.46033	9.71202	-638.93915	786.66785	11.01619	-643.99084	-691.83911	7.36419	496.15048	750.78729	6.57981	506.10486	2.69523	1309.40723	-960.50031	
883	8.820	-784.13525	9.65872	-638.55609	785.72180	11.37757	-644.07916	-692.50610	7.03501	496.15637	749.99512	6.28234	506.20477	1.89751	1309.89758	-959.41858	
884	8.830	-785.27930	10.16618	-638.27356	784.84467	11.74563	-644.04138	-693.34155	6.73744	496.27655	748.95636	5.91269	506.20770	1.26844	1310.67554	-958.21198	
885	8.840	-786.31317	10.57808	-638.15875	784.01782	12.19050	-643.77325	-694.33844	6.47634	496.39938	748.07019	5.60566	506.39264	0.42392	1311.09399	-957.08734	
886	8.850	-786.97162	11.06770	-638.48511	782.88770	12.67923	-643.75256	-695.04541	6.17410	496.60785	747.27460	5.34212	506.37677	-0.54550	1311.76074	-956.02887	
887	8.860	-787.84503	11.57137	-638.47955	782.15149	12.93190	-643.81415	-696.63782	6.26120	497.09763	746.22333	5.03339	506.39056	-1.31717	1312.33618	-955.12946	
888	8.870	-788.89508	12.12725	-638.11078	781.24036	13.50017	-643.54938	-697.55902	5.99236	497.20267	745.49493	4.75621	506.49203	-2.47200	1312.95520	-954.35638	
889	8.880	-789.72565	12.43890	-637.99646	780.22168	13.92101	-643.45966	-698.32983	5.78462	497.25995	744.37292	4.37843	506.77176	-2.81504	1313.67493	-953.90002	
890	8.890	-790.62335	12.91010	-638.16516	779.37701	14.16646	-643.39716	-699.23657	5.42143	497.24023	743.46765	4.08159	506.80353	-4.35293	1314.30273	-953.00946	
891	8.900	-791.71338	13.38762	-638.06482	778.28998	14.53799	-643.37195	-700.19391	5.16581	497.29468	742.79895	3.79601	506.74969	-5.02514	1314.70947	-952.62842	
892	8.910	-792.49762	13.66398	-637.68402	777.59875	14.93469	-642.97192	-701.04187	4.90080	497.44479	741.79108	3.40232	506.90482	-5.89137	1315.08850	-951.67816	
893	8.920	-793.43585	14.09775	-637.65222	776.58447	15.28003	-643.04926	-702.16241	4.53713	497.56421	740.60907	3.17418	507.15482	-7.10145	1315.83643	-950.80414	
894	8.930	-794.45038	14.26820	-637.51782	775.51495	15.81061	-642.88245	-703.01385	4.29433	497.77478	739.88580	2.98739	507.25931	-7.74721	1316.61316	-949.90149	
895	8.940	-795.52698	14.62801	-637.24701	774.70294	16.10006	-642.87384	-703.94049	3.91961	497.85898	738.84326	2.72281	507.36526	-8.60951	1317.15808	-948.65564	
896	8.950	-796.35541	14.98630	-637.09082	773.65802	16.45821	-642.80249	-704.68744	3.62457	497.93564	737.97321	2.40247	507.51950	-9.67874	1317.72339	-947.51996	
897	8.960	-797.15057	15.63040	-637.07434	772.62994	16.89934	-642.64966	-705.71753	3.28142	498.06625	737.04742	2.07803	507.55664	-10.49724	1318.27686	-946.59613	
898	8.970	-798.44116	16.13968	-637.16699	771.63910	17.32348	-642.63757	-706.81635	3.01432	498.24142	735.56952	1.87955	507.82401	-11.27299	1318.80786	-945.43176	
899	8.980	-799.32715	16.63951	-637.12305	770.80328	17.67365	-642.58923	-707.78015	2.80516	498.29156	735.13324	1.49109	507.83423	-12.55248	1319.56677	-944.22717	
900	8.990	-800.14172	17.02382	-636.81451	769.73340	18.10466	-642.35107	-708.61853	2.47566	498.23822	734.09198	1.08742	507.91733	-13.30481	1320.15808	-943.50964	
901	9.000	-801.01520	17.48207	-636.67957	768.80670	18.48478	-642.31073	-709.06152	1.82382	498.11334	732.87042	0.85699	508.12500	-14.52972	1320.77881	-942.67401	
902	9.010	-802.15472	17.95913	-636.81464	767.87781	18.83928	-642.19189	-710.14087	1.46269	498.12564	732.26239	0.62782	508.25311	-15.15861	1321.17200	-942.11975	
903	9.020	-803.03088	18.37059	-636.74152	766.83032	19.32098	-641.99847	-711.44067	1.56546	498.73474	731.25287	0.23118	508.24207	-16.29895	1321.99915	-941.10791	
904	9.030	-803.80438	18.45059	-636.09247	766.01178	19.67884	-641.95593	-712.50793	1.27072	498.70987	730.25623	-0.09100	508.43298	-17.04333	1322.68384	-940.51855	
905	9.040	-805.08313	18.94455	-636.09637	764.97888	20.14876	-641.79089	-713.37952	0.95098	498.82288	729.38086	-0.40126	508.44974	-18.39559	1323.29675	-939.43945	
906	9.050	-806.15173	19.28840	-636.15009	763.94000	20.62702	-641.45715	-714.27112	0.69065	498.70313	728.35065	-0.77488	508.39453	-19.11337	1323.72241	-938.52667	
907	9.060	-806.82495	19.80030	-636.17981	763.10974	21.04724	-641.56366	-715.45660	0.48142	498.79251	727.40375	-1.00055	508.65494	-20.02399	1324.36560	-937.64124	
908	9.070	-807.96783	20.28753	-635.77557	762.09998	21.56062	-641.49188	-716.29871	0.21087	498.97510	726.29962	-1.41849	508.83716	-20.73899	1324.74231	-936.52197	
909	9.080	-808.91602	20.86547	-635.83752	761.15594	21.81161	-641.12769	-717.46259	-0.09474	499.09351	725.37726	-1.63197	508.77045	-21.88808	1325.35022	-935.40948	
910	9.090	-809.81897	21.26271	-635.89673	760.08093	22.24665	-641.16199	-718.38928	-0.25023	499.25092	724.49371	-1.88060	508.83490	-23.05787	1326.17383	-934.72076	
911	9.100	-810.85901	21.76050	-635.72937	759.31927	22.73126	-641.01208	-719.17285	-0.62066	499.28387	723.16583	-2.24290	508.96521	-24.12870	1326.94775	-933.49622	
912	9.110	-811.70166	22.16550	-635.36548	758.32611	23.17580	-640.84106	-720.03540	-0.92154	499.31281	722.54248	-2.49042	509.04752	-24.80529	1327.36426	-932.56512	
913	9.120	-812.58447	22.47951	-635.37335	757.65710	23.40818	-640.61102	-721.18774	-1.19520	499.45911	721.17499	-2.78291	509.18802	-25.71077	1327.86755	-931.83594	
